<svg width="42" height="26" viewBox="0 0 42 26" fill="none" xmlns="http://www.w3.org/2000/svg">
<path fill-rule="evenodd" clip-rule="evenodd" d="M26.1614 19.1299H41.0977C41.5952 19.1299 42 19.5272 42 20.0156V22.1081V22.8288V25.3956C42 25.7295 41.7246 26 41.3848 26C41.0449 26 40.7695 25.7295 40.7695 25.3956V23.4332H34.164C33.8242 23.4332 33.5488 23.1627 33.5488 22.8288C33.5488 22.495 33.8242 22.2245 34.164 22.2245H40.7695V22.1081V20.3387H26.1614V22.2245H31.6591C31.999 22.2245 32.2744 22.495 32.2744 22.8288C32.2744 23.1627 31.999 23.4332 31.6591 23.4332H26.1614V24.54C26.1614 25.1489 25.6556 25.6442 25.0338 25.6442H13.0807C5.86802 25.6442 0 19.8922 0 12.8221C0 5.75199 5.86802 0 13.0807 0C18.8423 0 23.7455 3.67052 25.4852 8.75128H27.7094C28.2448 8.75128 28.6801 9.13581 28.7927 9.70825L29.6349 14.0052C29.7066 14.367 29.6331 14.702 29.4275 14.9471C29.2301 15.1824 28.9291 15.312 28.5801 15.312H26.1614V19.1299ZM28.4009 14.1033L27.5887 9.9599H25.8323C26.0472 10.8805 26.1612 11.8386 26.1612 12.8221V14.1033H28.4009ZM1.24612 13.4265H3.48754L3.5681 13.427C3.58327 13.4271 3.59919 13.4273 3.61576 13.4273C3.78179 13.4273 4.00901 13.4122 4.19711 13.2245C4.40121 13.0209 4.39514 12.7793 4.39177 12.6495C4.39071 12.6075 4.38964 12.5641 4.39177 12.507C4.4519 10.8882 4.97707 9.33025 5.91058 8.00148C6.1036 7.72678 6.0333 7.35039 5.75365 7.16078C5.47409 6.97117 5.09076 7.04023 4.89782 7.31493C3.87817 8.76643 3.28476 10.4569 3.17435 12.2177H1.24612C1.55751 6.29357 6.41999 1.52861 12.4652 1.22418V3.11355C10.5275 3.22918 8.68791 3.89099 7.13039 5.03539C6.85829 5.23523 6.80267 5.61404 7.00619 5.88132C7.12702 6.04007 7.312 6.12371 7.49936 6.12371C7.62758 6.12371 7.75686 6.08455 7.86735 6.00332C9.28928 4.9586 10.9799 4.37302 12.757 4.30976C12.8155 4.30765 12.8616 4.30866 12.8981 4.30945L12.9012 4.30952L12.9042 4.30958C13.0382 4.31193 13.2838 4.31626 13.4895 4.11669C13.6995 3.91326 13.6975 3.67147 13.696 3.49485V3.49477L13.6957 1.22418C19.9451 1.53901 24.9306 6.62065 24.9306 12.822V19.7341V21.3362H13.5524C12.9529 21.3362 12.4652 21.8149 12.4652 22.4032V24.4199C6.42008 24.1155 1.55759 19.3506 1.24612 13.4265ZM13.696 24.4355H24.931V22.8288V22.545H13.696V24.4355Z" fill="black"/>
<path fill-rule="evenodd" clip-rule="evenodd" d="M19.009 19.9333H13.1262C9.26575 19.9333 6.125 17.0169 6.125 13.4322C6.125 9.84872 9.26575 6.93333 13.1262 6.93333C16.9854 6.93333 20.125 9.8488 20.125 13.4322V18.8937C20.125 19.4669 19.6243 19.9333 19.009 19.9333ZM18.8808 13.4322C18.8808 10.487 16.2992 8.09082 13.126 8.09082C9.95148 8.09082 7.36878 10.487 7.36878 13.4322C7.36878 16.3787 9.95148 18.7759 13.126 18.7759H18.8808V13.4322Z" fill="black"/>
<path fill-rule="evenodd" clip-rule="evenodd" d="M15.3615 15.6H10.8885C10.1918 15.6 9.625 15.1112 9.625 14.5103V12.354C9.625 11.7545 10.1918 11.2667 10.8885 11.2667H15.3615C16.0582 11.2667 16.625 11.7545 16.625 12.354V14.5103C16.625 15.1112 16.0582 15.6 15.3615 15.6ZM15.2198 12.4773H11.0305V14.3894H15.2198V12.4773Z" fill="black"/>
</svg>
